<svg width="347" height="77" viewBox="0 0 347 77" fill="none" xmlns="http://www.w3.org/2000/svg">
<g clip-path="url(#clip0_1_51)">
<path d="M36.736 58.312C35.0293 59.2933 33.1947 60.0827 31.232 60.68C29.312 61.2347 27.264 61.512 25.088 61.512C21.9307 61.512 18.9653 60.9147 16.192 59.72C13.4187 58.5253 11.008 56.8827 8.96 54.792C6.86933 52.744 5.22667 50.3333 4.032 47.56C2.83733 44.7867 2.24 41.8213 2.24 38.664C2.24 35.5067 2.83733 32.5413 4.032 29.768C5.22667 26.952 6.86933 24.4987 8.96 22.408C11.008 20.36 13.4187 18.7387 16.192 17.544C18.9653 16.3067 21.9307 15.688 25.088 15.688C27.264 15.688 29.312 15.9653 31.232 16.52C33.1947 17.0747 35.0507 17.864 36.8 18.888V26.056H34.304V20.488C32.896 19.7627 31.4027 19.208 29.824 18.824C28.288 18.3973 26.7093 18.184 25.088 18.184C22.272 18.184 19.648 18.7387 17.216 19.848C14.784 20.9147 12.6507 22.3867 10.816 24.264C8.98133 26.0987 7.53067 28.2747 6.464 30.792C5.39733 33.2667 4.864 35.912 4.864 38.728C4.864 41.5013 5.39733 44.1253 6.464 46.6C7.53067 49.0747 8.98133 51.208 10.816 53C12.608 54.8347 14.72 56.3067 17.152 57.416C19.584 58.4827 22.1867 59.016 24.96 59.016C26.8373 59.016 28.6293 58.7813 30.336 58.312C32.0853 57.8 33.728 57.096 35.264 56.2L36.736 58.312ZM71.5745 61H59.2225V58.504H64.1505C67.2652 51.0373 70.4012 43.656 73.5585 36.36C76.7158 29.0213 79.8518 21.6187 82.9665 14.152C86.0812 21.6187 89.1958 29.0213 92.3105 36.36C95.4678 43.656 98.6252 51.0373 101.783 58.504H106.71V61H94.4225V58.504H99.0945C97.8998 55.688 96.7052 52.8933 95.5105 50.12C94.3585 47.3467 93.1852 44.552 91.9905 41.736H73.9425C72.6625 44.808 71.4892 47.6027 70.4225 50.12C69.3558 52.6373 68.1612 55.432 66.8385 58.504H71.5745V61ZM82.3265 21.832C81.1745 24.7333 79.9585 27.656 78.6785 30.6C77.4412 33.5013 76.2252 36.3813 75.0305 39.24H90.9025L83.5425 21.832L82.9665 19.976C82.8812 20.36 82.7745 20.68 82.6465 20.936C82.5612 21.192 82.4545 21.4907 82.3265 21.832ZM151.992 58.12C150.755 59.2293 149.304 60.0827 147.64 60.68C145.976 61.2347 144.227 61.512 142.392 61.512C140.728 61.512 139.171 61.3413 137.72 61C136.312 60.6587 135.075 60.2107 134.008 59.656C132.856 59.144 131.875 58.5893 131.064 57.992C130.253 57.352 129.613 56.7547 129.144 56.2V49.352H131.704V55.112C132.856 56.1787 134.285 57.096 135.992 57.864C137.699 58.632 139.747 59.016 142.136 59.016C143.587 59.016 144.973 58.7813 146.296 58.312C147.619 57.8427 148.813 57.2027 149.88 56.392C150.861 55.5387 151.672 54.5147 152.312 53.32C152.952 52.0827 153.272 50.7173 153.272 49.224C153.272 47.7307 153.037 46.4293 152.568 45.32C152.141 44.2107 151.523 43.2933 150.712 42.568C149.859 41.7147 148.856 41.0533 147.704 40.584C146.595 40.072 145.4 39.5813 144.12 39.112C142.627 38.6427 141.091 38.1733 139.512 37.704C137.976 37.2347 136.568 36.6373 135.288 35.912C133.965 35.144 132.877 34.1413 132.024 32.904C131.171 31.6667 130.701 30.0027 130.616 27.912C130.573 26.504 130.744 25.096 131.128 23.688C131.555 22.2373 132.237 20.936 133.176 19.784C134.115 18.632 135.331 17.7147 136.824 17.032C138.317 16.3067 140.131 15.944 142.264 15.944C142.989 15.944 143.779 15.9867 144.632 16.072C145.485 16.1573 146.36 16.3067 147.256 16.52C148.109 16.7333 148.984 17.0747 149.88 17.544C150.819 17.9707 151.693 18.504 152.504 19.144V26.056H149.944V20.424C149.133 19.912 148.067 19.464 146.744 19.08C145.464 18.6533 143.949 18.44 142.2 18.44C140.664 18.44 139.32 18.696 138.168 19.208C137.059 19.72 136.141 20.4027 135.416 21.256C134.691 22.1093 134.136 23.0693 133.752 24.136C133.411 25.2027 133.24 26.312 133.24 27.464C133.24 29.384 133.709 30.8773 134.648 31.944C135.587 32.968 136.781 33.8 138.232 34.44C139.896 35.208 141.752 35.848 143.8 36.36C145.891 36.872 147.853 37.576 149.688 38.472C151.437 39.368 152.888 40.6267 154.04 42.248C155.235 43.8693 155.853 46.152 155.896 49.096C155.896 50.9733 155.533 52.68 154.808 54.216C154.125 55.752 153.187 57.0533 151.992 58.12ZM208.282 57.672C206.96 58.952 205.381 59.912 203.546 60.552C201.712 61.192 199.728 61.512 197.594 61.512C195.418 61.512 193.413 61.192 191.578 60.552C189.744 59.912 188.144 58.952 186.778 57.672C185.456 56.4347 184.41 54.8773 183.642 53C182.874 51.1227 182.49 48.968 182.49 46.536V18.696H177.562V16.2H190.426V18.696H185.114V46.344C185.114 48.392 185.413 50.2053 186.01 51.784C186.65 53.32 187.525 54.6213 188.634 55.688C189.701 56.7973 191.002 57.6293 192.538 58.184C194.074 58.7387 195.76 59.016 197.594 59.016C199.344 59.016 200.986 58.7387 202.522 58.184C204.058 57.6293 205.381 56.7973 206.49 55.688C207.6 54.6213 208.474 53.32 209.114 51.784C209.754 50.2053 210.074 48.392 210.074 46.344V18.696H204.762V16.2H217.626V18.696H212.698V46.536C212.698 48.968 212.293 51.1227 211.482 53C210.714 54.8773 209.648 56.4347 208.282 57.672ZM284.333 18.696V63.048L248.877 22.088L247.725 20.616L247.853 22.472V58.504H252.909V61H240.045V58.504H245.229V18.696H240.045V16.2H246.957L280.685 55.496L281.901 57.16L281.709 55.112V18.696H276.845V16.2H289.709V18.696H284.333ZM324.954 61H312.09V58.504H317.082V18.696H312.09V16.2H324.954V18.696H319.706V58.504H324.954V61Z" fill="black"/>
</g>
<g clip-path="url(#clip1_1_51)">
<rect width="62" height="62" transform="translate(52 6)" fill="white"/>
<path d="M84 7L110.847 39.25H57.1532L84 7Z" fill="#0E0E0E"/>
<rect x="64" y="42" width="39" height="28" fill="#0E0E0E"/>
</g>
<defs>
<clipPath id="clip0_1_51">
<rect width="328" height="61" fill="white" transform="translate(0 13)"/>
</clipPath>
<clipPath id="clip1_1_51">
<rect width="62" height="62" fill="white" transform="translate(52 6)"/>
</clipPath>
</defs>
</svg>
